<svg preserveAspectRatio="xMidYMid meet" data-bbox="0.74 0.544 136.7 26.495" xmlns="http://www.w3.org/2000/svg" viewBox="0.74 0.544 136.7 26.495" height="28" width="138" data-type="shape" role=presentation aria-hidden=true aria-label="">
    <g>
        <path d="M39.585 10.2h-.096c-.096.298-.203.624-.32.976-.118.352-.24.725-.368 1.12-.128.384-.25.784-.368 1.2l-.352 1.808c-.064.213-.123.421-.176.624a7.57 7.57 0 0 1-.144.576 40.985 40.985 0 0 1-.256 1.024 9.084 9.084 0 0 1-.464.128 2.53 2.53 0 0 1-.608.064c-.534 0-.934-.091-1.2-.272a.915.915 0 0 1-.4-.784c0-.15.021-.299.064-.448.042-.15.09-.326.144-.528.085-.342.213-.779.384-1.312.17-.544.357-1.126.56-1.744l.624-1.84c.213-.598.405-1.131.576-1.6.17-.48.298-.832.384-1.056.181-.107.458-.208.832-.304a4.42 4.42 0 0 1 1.104-.144c.533 0 1.008.08 1.424.24.416.149.677.394.784.736.192.544.394 1.184.608 1.92.224.725.448 1.488.672 2.288.234.789.458 1.562.672 2.32.213.746.4 1.418.56 2.016-.128.138-.32.256-.576.352-.256.096-.56.144-.912.144-.523 0-.886-.086-1.088-.256-.203-.182-.352-.454-.448-.816l-.4-1.536-.32-1.648a63.074 63.074 0 0 0-.32-1.2 358.526 358.526 0 0 0-.576-2.048Zm-2.704 5.328 1.104-2.16h3.52l.336 2.16h-4.96Z"/>
        <path d="M49.587 11.672c-.533 0-.997.17-1.392.512-.384.341-.576.842-.576 1.504 0 .661.187 1.152.56 1.472.373.32.837.48 1.392.48.32 0 .603-.038.848-.112.256-.086.47-.171.64-.256.203.149.352.309.448.48.107.17.16.378.16.624 0 .426-.213.768-.64 1.024-.416.256-1.013.384-1.792.384-.885 0-1.659-.155-2.32-.464a3.457 3.457 0 0 1-1.52-1.376c-.352-.619-.528-1.371-.528-2.256 0-.939.197-1.712.592-2.32a3.62 3.62 0 0 1 1.568-1.376 4.88 4.88 0 0 1 2.128-.464c.757 0 1.344.138 1.76.416.427.277.64.634.64 1.072 0 .202-.048.394-.144.576a2.05 2.05 0 0 1-.336.448 4.55 4.55 0 0 0-.656-.24 2.617 2.617 0 0 0-.832-.128Z"/>
        <path d="M53.063 13.32h2.688v1.552c0 .266.086.464.256.592.181.117.432.176.752.176.16 0 .325-.011.496-.032.17-.032.32-.07.448-.112.096.106.176.234.24.384.075.149.112.325.112.528 0 .394-.154.725-.464.992-.299.256-.832.384-1.6.384-.938 0-1.664-.214-2.176-.64-.501-.427-.752-1.12-.752-2.08V13.32Zm1.76-1.296v-2.08h3.024c.064.106.123.25.176.432.064.181.096.378.096.592 0 .373-.085.645-.256.816-.16.16-.379.24-.656.24h-2.384Zm.928 1.68h-2.688V7.96c.117-.032.283-.064.496-.096.224-.043.459-.064.704-.064.523 0 .901.09 1.136.272.235.181.352.517.352 1.008v4.624Z"/>
        <path d="M65.95 15.224c0 .81-.309 1.445-.928 1.904-.608.458-1.498.688-2.672.688-.906 0-1.653-.128-2.24-.384-.575-.267-.864-.678-.864-1.232 0-.256.054-.475.16-.656.107-.182.235-.326.385-.432.309.17.66.325 1.056.464a4.62 4.62 0 0 0 1.392.192c.682 0 1.024-.176 1.024-.528a.401.401 0 0 0-.192-.352c-.128-.086-.342-.155-.64-.208l-.48-.096c-.918-.182-1.606-.47-2.065-.864-.458-.395-.688-.95-.688-1.664 0-.8.326-1.424.977-1.872.65-.448 1.498-.672 2.544-.672.522 0 .997.053 1.423.16.438.096.785.256 1.04.48.257.213.385.49.385.832 0 .234-.048.442-.144.624a1.32 1.32 0 0 1-.337.448 2.304 2.304 0 0 0-.56-.224 7.33 7.33 0 0 0-.8-.192 4.274 4.274 0 0 0-.767-.08c-.353 0-.625.042-.817.128-.192.074-.288.197-.288.368a.34.34 0 0 0 .16.288c.107.074.31.144.608.208l.496.112c1.024.234 1.75.56 2.176.976.438.405.657.933.657 1.584Z"/>
        <path d="M68.353 9.224c0-.374.118-.678.353-.912.245-.246.58-.427 1.007-.544.438-.128.95-.192 1.537-.192.842 0 1.546.133 2.112.4.565.256.992.608 1.28 1.056.288.448.431.954.431 1.52 0 .565-.16 1.114-.48 1.648-.309.522-.784 1.04-1.424 1.552l-2.096 1.68h3.84c.065.106.123.256.177.448.063.181.096.378.096.592 0 .384-.086.661-.257.832-.17.16-.394.24-.672.24h-5.552a1.755 1.755 0 0 1-.56-.624 1.942 1.942 0 0 1-.191-.88c0-.363.074-.667.224-.912a2.71 2.71 0 0 1 .496-.608l2.207-1.888c.555-.47.934-.848 1.136-1.136.203-.288.305-.55.305-.784a.812.812 0 0 0-.368-.704c-.235-.171-.566-.256-.992-.256-.427 0-.811.069-1.153.208-.33.128-.608.266-.831.416a1.932 1.932 0 0 1-.448-.48 1.263 1.263 0 0 1-.177-.672Z"/>
        <path d="m80.38 8.92 1.088-.096c.043.33.08.72.112 1.168.032.448.053.912.064 1.392.021.469.032.917.032 1.344v4.784a1.45 1.45 0 0 1-.256.064 1.163 1.163 0 0 1-.336.048c-.235 0-.41-.043-.528-.128-.117-.096-.176-.246-.176-.448V8.92Zm7.712 7.52-1.104.096a28.76 28.76 0 0 1-.192-2.736 241.16 241.16 0 0 1-.016-2.72V7.848c.064-.022.15-.043.256-.064.107-.032.224-.048.352-.048.235 0 .41.048.528.144.117.085.176.229.176.432v8.128Zm0-.48v-.064 1.472a1.317 1.317 0 0 1-.368.192c-.15.053-.315.08-.496.08-.256 0-.475-.048-.656-.144-.181-.107-.347-.294-.496-.56l-3.04-5.12c-.16-.288-.336-.603-.528-.944-.192-.352-.373-.683-.544-.992-.17-.32-.304-.582-.4-.784L80.38 9.4V8.008a.935.935 0 0 1 .352-.208c.16-.054.33-.08.512-.08.256 0 .475.053.656.16.181.096.347.277.496.544l3.056 5.12c.17.288.347.608.528.96.192.341.368.672.528.992.16.309.288.565.384.768l1.2-.304Z"/>
        <path d="m91.183 14.664-.065-1.008L95.951 13c-.043-.587-.246-1.067-.608-1.44-.363-.384-.865-.576-1.505-.576-.66 0-1.21.24-1.647.72-.427.469-.64 1.146-.64 2.032v.352c.074.853.352 1.504.831 1.952.491.437 1.158.656 2 .656a3.17 3.17 0 0 0 1.216-.224c.363-.15.651-.31.865-.48a.828.828 0 0 1 .272.272.531.531 0 0 1 .112.336c0 .202-.118.394-.352.576-.225.17-.529.309-.913.416a4.6 4.6 0 0 1-1.263.16c-.822 0-1.537-.15-2.145-.448a3.218 3.218 0 0 1-1.392-1.328c-.32-.598-.48-1.323-.48-2.176 0-.608.086-1.147.256-1.616.182-.48.427-.886.736-1.216a3.16 3.16 0 0 1 1.136-.752 3.682 3.682 0 0 1 1.424-.272c.651 0 1.222.138 1.713.416.5.277.89.666 1.168 1.168.287.49.431 1.056.431 1.696 0 .234-.053.405-.16.512a.78.78 0 0 1-.448.176l-5.376.752Z"/>
        <path d="M99.031 13.32h1.28v2.208c0 .426.123.73.368.912.246.17.582.256 1.008.256.182 0 .384-.032.608-.096a2.54 2.54 0 0 0 .56-.224c.064.064.123.144.176.24.054.096.08.208.08.336 0 .234-.138.426-.416.576-.277.149-.661.224-1.152.224-.746 0-1.354-.166-1.824-.496-.458-.331-.688-.88-.688-1.648V13.32Zm.656-1.952v-1.056h3.248a.768.768 0 0 1 .096.208.955.955 0 0 1 .048.304c0 .17-.042.304-.128.4a.445.445 0 0 1-.352.144h-2.912Zm.624 2.432h-1.28V8.008c.054-.022.134-.043.24-.064.118-.032.24-.048.368-.048.224 0 .39.048.496.144.118.085.176.229.176.432V13.8Z"/>
        <path d="M109.546 12.04c-.192.672-.4 1.344-.624 2.016a76.227 76.227 0 0 1-.624 1.888 33.173 33.173 0 0 1-.56 1.52 1.17 1.17 0 0 1-.288.128 1.55 1.55 0 0 1-.432.048c-.17 0-.33-.032-.48-.096a.488.488 0 0 1-.288-.272 8.122 8.122 0 0 1-.368-.928 55.91 55.91 0 0 1-.416-1.392 259.97 259.97 0 0 0-.432-1.616 96.175 96.175 0 0 1-.416-1.632c-.117-.523-.218-.987-.304-1.392a1.42 1.42 0 0 1 .272-.208.858.858 0 0 1 .416-.096c.203 0 .352.058.448.176.107.106.182.282.224.528.096.448.203.954.32 1.52.128.565.256 1.125.384 1.68.139.554.262 1.056.368 1.504.118.437.203.762.256.976h.064c.086-.256.219-.672.4-1.248.182-.587.395-1.254.64-2 .256-.747.512-1.504.768-2.272a.865.865 0 0 1 .304-.112c.118-.032.246-.048.384-.048a.94.94 0 0 1 .48.112.484.484 0 0 1 .256.304c.256.736.496 1.461.72 2.176.224.704.422 1.333.592 1.888.171.544.294.949.368 1.216h.08c.246-.95.512-1.968.8-3.056a37.55 37.55 0 0 0 .704-3.2.987.987 0 0 1 .544-.144c.182 0 .326.042.432.128.107.085.16.218.16.4 0 .117-.037.341-.112.672-.064.33-.154.72-.272 1.168-.117.448-.25.928-.4 1.44-.138.501-.282.992-.432 1.472-.149.469-.293.896-.432 1.28-.128.384-.24.682-.336.896a.737.737 0 0 1-.272.112 1.216 1.216 0 0 1-.416.064c-.437 0-.693-.102-.768-.304-.149-.384-.32-.859-.512-1.424a81.843 81.843 0 0 1-.592-1.856l-.608-2.016Z"/>
        <path d="M123.254 13.848c0 .789-.149 1.477-.448 2.064a3.244 3.244 0 0 1-1.264 1.36c-.544.32-1.184.48-1.92.48s-1.381-.16-1.936-.48a3.25 3.25 0 0 1-1.264-1.36c-.298-.587-.448-1.275-.448-2.064 0-.8.15-1.488.448-2.064.31-.587.736-1.04 1.28-1.36.555-.32 1.195-.48 1.92-.48.726 0 1.36.16 1.904.48.544.32.966.773 1.264 1.36.31.576.464 1.264.464 2.064ZM119.622 11c-.714 0-1.285.256-1.712.768-.416.501-.624 1.194-.624 2.08 0 .896.203 1.594.608 2.096.416.501.992.752 1.728.752.726 0 1.291-.251 1.696-.752.416-.512.624-1.211.624-2.096 0-.886-.208-1.579-.624-2.08-.405-.512-.97-.768-1.696-.768Z"/>
        <path d="M126.514 11.528v2.528h-1.28v-2.432c0-.246.043-.438.128-.576.096-.15.251-.294.464-.432.277-.182.656-.336 1.136-.464a5.753 5.753 0 0 1 1.6-.208c.853 0 1.28.213 1.28.64a.775.775 0 0 1-.176.528 5.993 5.993 0 0 0-.416-.064 4.13 4.13 0 0 0-.512-.032c-.491 0-.923.053-1.296.16a3.84 3.84 0 0 0-.928.352Zm-1.28 1.792 1.28.192v4a1.444 1.444 0 0 1-.24.064 1.223 1.223 0 0 1-.352.048c-.224 0-.395-.043-.512-.128-.117-.096-.176-.246-.176-.448V13.32Z"/>
        <path d="m133.312 14.168-.8-.624 3.648-3.536c.256.01.453.074.592.192.149.106.224.25.224.432a.616.616 0 0 1-.144.4 2.206 2.206 0 0 1-.384.384l-3.136 2.752Zm-.832-.416.896-.528 4.064 3.648c-.022.234-.096.421-.224.56a.597.597 0 0 1-.48.208.838.838 0 0 1-.448-.128 2.637 2.637 0 0 1-.4-.336l-3.408-3.424Zm-1.104-.496 1.28.192v4.064a1.502 1.502 0 0 1-.24.064 1.223 1.223 0 0 1-.352.048c-.224 0-.395-.043-.512-.128-.118-.096-.176-.246-.176-.448v-3.792Zm1.28.816-1.28-.192V7.176c.053-.022.133-.043.24-.064.117-.032.239-.048.368-.048.224 0 .389.048.496.144.117.085.176.229.176.432v6.432Z"/>
        <path d="M19.221 2.43C18.7 1.571 17.884.55 16.03.544c-1.855-.005-2.74 1.02-3.238 1.886-.497.867-11.741 20.675-11.741 20.675-.645 1.227-.149 2.274.24 2.734.73.869 2.01 1.324 3.23 1.171 1.736-.217 2.584-.272 6.922-2.874 4.084-2.45 10.049-6.88 11.859-8.973.448-.519.536-1.179.536-1.682 0-.746-.217-1.251-.744-1.82-.5-.54-1.05-.846-1.838-.956-.885-.123-1.591-.065-2.338.495-.485.363-.72.65-.94 1.233-.32.854-.01 1.771-.716 2.589-.36.416-1.72.416-1.72.416s-1.128.04-1.567-.416c-.51-.53-.257-1.872-.257-1.872s.1-.906.242-1.435l.015-.055c.225-.821.419-1.294.942-1.966.427-.547.736-.815 1.32-1.19.65-.415 1.19-.622 1.889-.808.918-.245 1.74-.322 2.694-.322.525 0 .956.02 1.37.076l-2.968-5.02Z"/>
        <path d="M27.296 16.416c-.438.628-.497.768-1.689 1.81-2.63 2.302-5.12 3.817-7.36 5.589 0 0 .487-.115 1.628.08 2.116.36 3.205 1.024 4.145 1.597.803.49 1.498.913 2.632 1.024 4.359.427 4.025-4.048 3.157-5.868-.868-1.82-2.513-4.232-2.513-4.232Z"/>
    </g>
</svg>