<?xml version="1.0" encoding="UTF-8"?> <!-- Generator: Adobe Illustrator 26.3.1, SVG Export Plug-In . SVG Version: 6.00 Build 0) --> <svg xmlns="http://www.w3.org/2000/svg" xmlns:xlink="http://www.w3.org/1999/xlink" version="1.1" id="Layer_1" x="0px" y="0px" viewBox="0 0 393.18 60.3" style="enable-background:new 0 0 393.18 60.3;" xml:space="preserve"> <style type="text/css"> .st0{fill:#1a1a1a;} </style> <g> <path class="st0" d="M0,0v60.3h60.3V0H0z M16.27,48.08h-4.9V12.2h4.9V48.08z M21.02,46.64l6.83-16.5l-6.83-16.49l4.57-1.89 l7.52,18.15l0.09,0.23l-7.61,18.39L21.02,46.64z M35.31,48.53l-3.46-3.47l14.92-14.92L31.85,15.22l3.46-3.46L53.7,30.14 L35.31,48.53z"></path> <g> <path class="st0" d="M84.01,48.59c-5.43,0-10.91-1.89-15.21-5.74l4.66-5.58c3.23,2.66,6.61,4.35,10.71,4.35 c3.23,0,5.17-1.28,5.17-3.38v-0.1c0-2-1.23-3.02-7.22-4.56c-7.22-1.84-11.88-3.84-11.88-10.96v-0.1c0-6.51,5.22-10.81,12.55-10.81 c5.22,0,9.68,1.64,13.32,4.56l-4.1,5.94c-3.18-2.2-6.3-3.53-9.32-3.53c-3.02,0-4.61,1.38-4.61,3.12v0.1 c0,2.36,1.54,3.12,7.73,4.71c7.27,1.9,11.37,4.51,11.37,10.76v0.1C97.18,44.6,91.75,48.59,84.01,48.59z"></path> <path class="st0" d="M125.66,37.07h-19.11c0.77,3.54,3.23,5.38,6.71,5.38c2.61,0,4.51-0.82,6.66-2.82l4.46,3.94 c-2.56,3.18-6.25,5.12-11.22,5.12c-8.25,0-14.34-5.79-14.34-14.19v-0.1c0-7.84,5.58-14.29,13.57-14.29 c9.17,0,13.37,7.12,13.37,14.91v0.1C125.77,35.89,125.72,36.35,125.66,37.07z M112.4,26.36c-3.23,0-5.33,2.3-5.94,5.84h11.73 C117.72,28.72,115.68,26.36,112.4,26.36z"></path> <path class="st0" d="M145.34,48.08V32.77c0-3.69-1.74-5.58-4.71-5.58c-2.97,0-4.87,1.9-4.87,5.58v15.32h-7.79V20.63h7.79v3.89 c1.79-2.3,4.1-4.41,8.04-4.41c5.89,0,9.32,3.89,9.32,10.19v17.77H145.34z"></path> <path class="st0" d="M176.23,48.08v-3.94c-1.9,2.56-4.51,4.46-8.55,4.46c-6.4,0-12.5-5.02-12.5-14.19v-0.1 c0-9.17,5.99-14.19,12.5-14.19c4.15,0,6.71,1.9,8.55,4.1V10.69h7.79v37.39H176.23z M176.33,34.3c0-4.56-3.02-7.58-6.66-7.58 s-6.71,2.97-6.71,7.58v0.1c0,4.56,3.07,7.58,6.71,7.58s6.66-3.02,6.66-7.58V34.3z"></path> <path class="st0" d="M220.03,48.08l-17.36-22.79v22.79h-7.79V12.23h7.27l16.8,22.08V12.23h7.79v35.86H220.03z"></path> <path class="st0" d="M256.35,37.07h-19.11c0.77,3.54,3.23,5.38,6.71,5.38c2.61,0,4.51-0.82,6.66-2.82l4.46,3.94 c-2.56,3.18-6.25,5.12-11.22,5.12c-8.25,0-14.34-5.79-14.34-14.19v-0.1c0-7.84,5.58-14.29,13.57-14.29 c9.17,0,13.37,7.12,13.37,14.91v0.1C256.45,35.89,256.4,36.35,256.35,37.07z M243.08,26.36c-3.23,0-5.33,2.3-5.94,5.84h11.73 C248.41,28.72,246.36,26.36,243.08,26.36z"></path> <path class="st0" d="M268.34,48.54c-4.76,0-7.99-1.9-7.99-8.25V27.29h-3.28v-6.66h3.28v-7.02h7.79v7.02h6.45v6.66h-6.45v11.73 c0,1.79,0.77,2.66,2.51,2.66c1.43,0,2.71-0.36,3.84-0.97v6.25C272.85,47.93,270.95,48.54,268.34,48.54z"></path> <path class="st0" d="M308.7,48.29h-7.02l-5.28-16.85l-5.38,16.85h-6.97l-8.45-27.66h7.89l4.41,16.65l5.17-16.75h6.71l5.22,16.8 l4.51-16.7h7.73L308.7,48.29z"></path> <path class="st0" d="M330.89,48.7c-8.5,0-14.8-6.3-14.8-14.19v-0.1c0-7.89,6.35-14.29,14.91-14.29c8.5,0,14.8,6.3,14.8,14.19v0.1 C345.79,42.29,339.44,48.7,330.89,48.7z M338.11,34.41c0-4.05-2.92-7.58-7.22-7.58c-4.46,0-7.12,3.43-7.12,7.48v0.1 c0,4.05,2.92,7.58,7.22,7.58c4.46,0,7.12-3.43,7.12-7.48V34.41z"></path> <path class="st0" d="M364.19,28.26c-5.17,0-8.35,3.12-8.35,9.68v10.14h-7.79V20.63h7.79v5.53c1.59-3.79,4.15-6.25,8.76-6.04v8.14 H364.19z"></path> <path class="st0" d="M384.27,48.08l-7.17-11.22l-2.71,2.87v8.35h-7.79V10.69h7.79v19.93l9.12-9.99h9.32l-10.45,10.81l10.81,16.65 H384.27z"></path> </g> </g> </svg> 